<?xml version="1.0" encoding="UTF-8"?>
<svg version="1.1" xmlns="http://www.w3.org/2000/svg" width="356" height="152">
<path d="M0 0 C9.36814736 5.06756509 16.83423313 11.23009184 24.16015625 18.85546875 C28.327129 23.15205185 32.68922425 27.12354533 37.671875 30.4453125 C38.31125 29.8678125 38.950625 29.2903125 39.609375 28.6953125 C47.48004322 22.91278075 54.8992077 20.99836058 64.671875 22.4453125 C76.68251799 26.11480291 85.30662685 35.80284283 93.671875 44.6953125 C104.24245426 55.37716101 118.64638847 61.20241785 133.5078125 61.76171875 C134.57128906 61.80361328 135.63476562 61.84550781 136.73046875 61.88867188 C137.82488281 61.92798828 138.91929687 61.96730469 140.046875 62.0078125 C141.72330078 62.07258789 141.72330078 62.07258789 143.43359375 62.13867188 C146.17957699 62.24428661 148.92564381 62.3463922 151.671875 62.4453125 C152.234375 64.3828125 152.234375 64.3828125 152.671875 66.4453125 C150.8925257 68.2246618 148.28124282 67.58879199 145.8737793 67.60302734 C144.631259 67.61328949 143.38873871 67.62355164 142.10856628 67.63412476 C141.10461854 67.63928164 141.10461854 67.63928164 140.08038902 67.64454269 C137.98080908 67.65633585 135.88143447 67.67579756 133.78193665 67.69766235 C127.81001817 67.75920678 121.83811218 67.81298841 115.8659668 67.84667969 C112.21415875 67.86783543 108.56271136 67.90331891 104.91111183 67.94743729 C103.52832148 67.9614543 102.14546716 67.97028683 100.76260948 67.97349167 C89.05387567 68.00345451 78.63345202 69.13931545 68.51171875 75.359375 C66.671875 76.4453125 66.671875 76.4453125 63.671875 77.4453125 C63.671875 78.1053125 63.671875 78.7653125 63.671875 79.4453125 C62.16796875 80.9609375 62.16796875 80.9609375 60.109375 82.6953125 C59.38105469 83.31277344 58.65273437 83.93023437 57.90234375 84.56640625 C56.79826172 85.49646484 56.79826172 85.49646484 55.671875 86.4453125 C54.70701172 87.29802734 54.70701172 87.29802734 53.72265625 88.16796875 C53.12839844 88.69261719 52.53414062 89.21726562 51.921875 89.7578125 C51.39078125 90.22832031 50.8596875 90.69882813 50.3125 91.18359375 C45.15630766 95.14895119 39.98733818 95.21461821 33.671875 94.4453125 C31.08799832 93.35686628 29.03683985 91.98977934 26.671875 90.4453125 C22.56670126 89.99765774 22.56670126 89.99765774 20.0078125 92.859375 C19.01404885 93.92339122 18.02741917 94.99410162 17.046875 96.0703125 C9.54770706 103.94461198 0.88082549 110.61010208 -10.390625 110.9453125 C-25.68536855 110.6180601 -35.38560586 99.51450216 -45.390625 89.3203125 C-45.89722656 88.78148438 -46.40382812 88.24265625 -46.92578125 87.6875 C-48.42644074 86.19458108 -48.42644074 86.19458108 -51.328125 85.4453125 C-51.54984375 86.02023438 -51.7715625 86.59515625 -52 87.1875 C-53.73365037 90.13470563 -55.8077173 91.57955505 -58.578125 93.5703125 C-59.51140625 94.25351563 -60.4446875 94.93671875 -61.40625 95.640625 C-66.75334248 98.94324095 -72.06490023 100.33020848 -78.328125 99.4453125 C-86.25757023 97.30880736 -91.54904256 92.01035485 -97.328125 86.4453125 C-111.97272763 72.35683402 -125.21373886 68.44697477 -145.14453125 68.12890625 C-146.24159897 68.10812515 -147.33866669 68.08734406 -148.46897888 68.06593323 C-151.94280269 68.00101453 -155.41669632 67.94182328 -158.890625 67.8828125 C-161.2584705 67.83957231 -163.62630918 67.79595635 -165.99414062 67.75195312 C-171.77206352 67.64539302 -177.55005449 67.54352401 -183.328125 67.4453125 C-183.328125 65.7953125 -183.328125 64.1453125 -183.328125 62.4453125 C-182.72452148 62.43072998 -182.12091797 62.41614746 -181.49902344 62.40112305 C-158.13820234 61.77101321 -143.34679327 57.92166447 -126.328125 41.4453125 C-111.63450013 27.34196937 -111.63450013 27.34196937 -99.828125 26.9453125 C-90.34645185 27.21836962 -85.20351676 30.25745992 -78.328125 36.4453125 C-74.49570373 34.83641867 -71.85904569 32.38124701 -68.828125 29.5703125 C-68.04743652 28.84871948 -68.04743652 28.84871948 -67.25097656 28.11254883 C-63.95868811 25.04518399 -60.76324726 21.89532192 -57.60791016 18.68774414 C-42.61894994 3.45239662 -21.76348931 -9.43084537 0 0 Z M-65.78417969 34.93774414 C-70.12266167 39.34258083 -70.12266167 39.34258083 -72.328125 40.4453125 C-71.79780889 44.42717754 -69.95056052 46.13030067 -67.015625 48.7578125 C-66.23574219 49.47582031 -65.45585937 50.19382813 -64.65234375 50.93359375 C-62.50147173 52.65124996 -62.50147173 52.65124996 -60.265625 52.36328125 C-58.03308088 51.30552345 -56.47332347 50.10511489 -54.640625 48.4453125 C-53.94453125 47.81882813 -53.2484375 47.19234375 -52.53125 46.546875 C-50.24600327 44.36697652 -48.07346544 42.10237296 -45.890625 39.8203125 C-39.76925022 33.61421281 -33.36048388 29.87178359 -24.640625 29.1328125 C-12.20939133 29.40855151 -3.95679664 39.69453334 4.1328125 47.9375 C6.18262867 49.94569554 8.38630411 51.7138194 10.671875 53.4453125 C14.77692954 52.06478704 17.38311052 50.19414982 20.546875 47.2578125 C21.40796875 46.46117187 22.2690625 45.66453125 23.15625 44.84375 C26.38505531 41.76535487 29.56401457 38.64579129 32.671875 35.4453125 C31.99125 34.76984375 31.310625 34.094375 30.609375 33.3984375 C28.49742526 31.28945398 26.42315838 29.14827312 24.359375 26.9921875 C16.70814614 19.07018294 9.19093103 12.07020924 -0.328125 6.4453125 C-0.99585938 6.04699219 -1.66359375 5.64867187 -2.3515625 5.23828125 C-27.5599758 -6.81552336 -50.14091509 18.98370002 -65.78417969 34.93774414 Z M41.671875 34.4453125 C44.65989804 43.40938162 59.37968579 49.91432069 67.35424805 54.09570312 C78.734701 59.73766404 91.94295444 62.70670188 104.671875 62.5078125 C105.435 62.49878906 106.198125 62.48976562 106.984375 62.48046875 C107.54125 62.46886719 108.098125 62.45726562 108.671875 62.4453125 C105.60097934 60.0640979 102.39792486 58.01215076 99.109375 55.9453125 C93.41062022 52.17622134 88.95558225 47.99552708 84.20703125 43.0625 C76.553109 35.16091617 69.06007739 28.53942586 57.796875 27.0703125 C51.87720019 27.78067348 46.1755337 30.52908755 41.671875 34.4453125 Z M-123.83300781 47.02246094 C-129.93125912 52.8259568 -136.32711142 57.77797011 -143.328125 62.4453125 C-121.36911941 63.75124455 -99.21364138 56.59008275 -82.328125 42.4453125 C-83.82498473 37.95473331 -87.43108324 35.7800658 -91.328125 33.4453125 C-105.69788766 28.65539161 -114.25506907 37.84816802 -123.83300781 47.02246094 Z M-49.92431641 50.97705078 C-51.69587012 52.82994192 -53.50671203 54.64154034 -55.328125 56.4453125 C-54.19375 57.0640625 -53.059375 57.6828125 -51.890625 58.3203125 C-51.25253906 58.66835937 -50.61445313 59.01640625 -49.95703125 59.375 C-41.85892146 62.67200161 -33.72583569 62.78196812 -25.078125 62.7578125 C-23.93988281 62.77392578 -22.80164063 62.79003906 -21.62890625 62.80664062 C-11.73638696 62.81225499 -2.47344854 61.31182435 6.671875 57.4453125 C6.9065664 55.35930881 6.9065664 55.35930881 5.30859375 54.0703125 C4.66535156 53.5340625 4.02210938 52.9978125 3.359375 52.4453125 C-0.14578284 49.48609075 -3.49278597 46.40707961 -6.828125 43.2578125 C-12.39738196 38.21786508 -17.10172141 34.42550688 -24.765625 33.8828125 C-35.78263683 34.55847251 -42.80860427 43.50337312 -49.92431641 50.97705078 Z M36.671875 39.4453125 C32.38801054 43.18056217 28.11506514 46.92798024 23.859375 50.6953125 C23.13105469 51.33984375 22.40273437 51.984375 21.65234375 52.6484375 C19.9388835 54.20305626 18.28947367 55.79199398 16.671875 57.4453125 C18.42094031 58.09367292 20.17116719 58.73890034 21.921875 59.3828125 C22.89640625 59.74246094 23.8709375 60.10210937 24.875 60.47265625 C28.68955102 61.79922497 31.93461582 62.57102714 35.98144531 62.55883789 C36.82201477 62.55876236 37.66258423 62.55868683 38.52862549 62.55860901 C39.42667908 62.55344772 40.32473267 62.54828644 41.25 62.54296875 C42.63986115 62.54084633 42.63986115 62.54084633 44.05780029 62.53868103 C47.01252492 62.53309074 49.96717333 62.52054 52.921875 62.5078125 C54.92708224 62.50279625 56.93229067 62.49823356 58.9375 62.49414062 C63.84898763 62.48312449 68.7604184 62.4658665 73.671875 62.4453125 C71.73725539 61.47738476 69.8025127 60.50993469 67.86352539 59.55078125 C57.54336986 54.41324851 48.61290572 48.72193596 39.671875 41.4453125 C38.681875 40.7853125 37.691875 40.1253125 36.671875 39.4453125 Z M-78.328125 45.4453125 C-79.318125 46.2496875 -80.308125 47.0540625 -81.328125 47.8828125 C-85.5281504 51.03471666 -89.95809666 53.66646989 -94.515625 56.2578125 C-95.20462891 56.65476318 -95.89363281 57.05171387 -96.60351562 57.46069336 C-100.16094824 59.45163308 -103.21236951 60.95781525 -107.328125 61.4453125 C-107.328125 61.7753125 -107.328125 62.1053125 -107.328125 62.4453125 C-85.77886186 64.33482206 -85.77886186 64.33482206 -66.51171875 56.80859375 C-66.12113281 56.35871094 -65.73054688 55.90882812 -65.328125 55.4453125 C-66.9310699 54.15212994 -68.53552642 52.86082094 -70.140625 51.5703125 C-71.03394531 50.85101563 -71.92726562 50.13171875 -72.84765625 49.390625 C-75.36383453 47.36590544 -75.36383453 47.36590544 -78.328125 45.4453125 Z M-65.328125 62.4453125 C-62.358125 62.4453125 -59.388125 62.4453125 -56.328125 62.4453125 C-57.318125 61.4553125 -58.308125 60.4653125 -59.328125 59.4453125 C-62.09035778 59.4453125 -63.22093954 60.75956413 -65.328125 62.4453125 Z M11.671875 59.4453125 C10.351875 60.4353125 9.031875 61.4253125 7.671875 62.4453125 C10.311875 62.4453125 12.951875 62.4453125 15.671875 62.4453125 C14.351875 61.4553125 13.031875 60.4653125 11.671875 59.4453125 Z M-112.328125 67.4453125 C-110.13884459 69.10150572 -107.934349 70.72616314 -105.69921875 72.3203125 C-99.07735968 77.11697207 -93.40296345 82.13077767 -87.80078125 88.0625 C-83.4422497 92.26266468 -79.62629818 94.10828198 -73.65234375 94.5625 C-65.88031516 94.17063301 -59.38736615 87.85588984 -54.328125 82.4453125 C-54.328125 81.7853125 -54.328125 81.1253125 -54.328125 80.4453125 C-73.34502176 68.69874358 -90.38416136 67.23872707 -112.328125 67.4453125 Z M-67.328125 67.4453125 C-65.843125 68.4353125 -65.843125 68.4353125 -64.328125 69.4453125 C-63.33941406 70.11046875 -62.35070312 70.775625 -61.33203125 71.4609375 C-60.1855544 72.20674251 -59.03839824 72.95150414 -57.890625 73.6953125 C-57.31763672 74.08460937 -56.74464844 74.47390625 -56.15429688 74.875 C-54.27424916 76.12807124 -54.27424916 76.12807124 -51.328125 77.4453125 C-49.16845322 77.0102233 -49.16845322 77.0102233 -47.328125 75.4453125 C-46.40515625 74.88714844 -45.4821875 74.32898438 -44.53125 73.75390625 C-43.55671875 73.13644531 -42.5821875 72.51898438 -41.578125 71.8828125 C-40.59328125 71.26277344 -39.6084375 70.64273438 -38.59375 70.00390625 C-37.84609375 69.48957031 -37.0984375 68.97523437 -36.328125 68.4453125 C-36.328125 68.1153125 -36.328125 67.7853125 -36.328125 67.4453125 C-46.558125 67.4453125 -56.788125 67.4453125 -67.328125 67.4453125 Z M8.671875 67.4453125 C10.321875 68.7653125 11.971875 70.0853125 13.671875 71.4453125 C15.4536137 73.01636385 17.22455739 74.59974454 18.984375 76.1953125 C19.86738281 76.99453125 20.75039062 77.79375 21.66015625 78.6171875 C22.32402344 79.22046875 22.98789063 79.82375 23.671875 80.4453125 C27.43712113 79.09866753 30.3428585 77.38779281 33.546875 75.0078125 C37.48668943 72.17680812 41.13118961 70.12339188 45.671875 68.4453125 C45.671875 68.1153125 45.671875 67.7853125 45.671875 67.4453125 C33.461875 67.4453125 21.251875 67.4453125 8.671875 67.4453125 Z M-43.7265625 78.671875 C-44.25507813 79.25710937 -44.78359375 79.84234375 -45.328125 80.4453125 C-41.32740325 90.20707358 -28.84826536 99.27634303 -19.953125 104.3828125 C-12.99192114 106.42316535 -6.78463535 106.47994348 -0.140625 103.3828125 C7.08812412 99.32094395 12.5520739 93.88163389 17.671875 87.4453125 C18.66119341 86.43474381 19.65889901 85.4321659 20.671875 84.4453125 C12.07969613 74.98911564 3.38867462 69.57099455 -9.328125 67.4453125 C-21.74149078 67.4453125 -34.34587374 69.96341801 -43.7265625 78.671875 Z M29.671875 83.4453125 C30.64484793 86.09887505 31.36406152 87.25519241 33.796875 88.7578125 C37.76861615 89.70757669 40.86851174 89.90814452 44.671875 88.4453125 C48.3066029 85.7485789 51.4488565 82.61361927 54.671875 79.4453125 C56.30912338 77.97734751 57.95447554 76.51834953 59.609375 75.0703125 C62.03976785 72.92662661 64.40510242 70.76182617 66.671875 68.4453125 C53.97981514 67.26465577 38.16591314 74.15686791 29.671875 83.4453125 Z " fill="#000000" transform="translate(194.328125,27.5546875)"/>
<path d="" fill="#000000" transform="translate(0,0)"/>
<path d="" fill="#000000" transform="translate(0,0)"/>
<path d="" fill="#000000" transform="translate(0,0)"/>
<path d="" fill="#000000" transform="translate(0,0)"/>
<path d="" fill="#000000" transform="translate(0,0)"/>
<path d="" fill="#000000" transform="translate(0,0)"/>
<path d="" fill="#000000" transform="translate(0,0)"/>
<path d="" fill="#000000" transform="translate(0,0)"/>
<path d="" fill="#000000" transform="translate(0,0)"/>
<path d="" fill="#000000" transform="translate(0,0)"/>
<path d="" fill="#000000" transform="translate(0,0)"/>
<path d="" fill="#000000" transform="translate(0,0)"/>
<path d="" fill="#000000" transform="translate(0,0)"/>
<path d="" fill="#000000" transform="translate(0,0)"/>
</svg>
